<svg width="174" height="47" viewBox="0 0 174 47" fill="none" xmlns="http://www.w3.org/2000/svg">
<path d="M18.0219 13.9221C17.9365 14.7328 17.8725 15.5221 17.8299 16.2901C17.8085 17.0368 17.7979 17.6128 17.7979 18.0181C17.7979 18.4235 17.8085 18.8075 17.8299 19.1701C17.8512 19.5328 17.8725 19.8315 17.8939 20.0661H17.1579C17.0085 18.7008 16.7739 17.6235 16.4539 16.8341C16.1552 16.0448 15.6965 15.4901 15.0779 15.1701C14.4805 14.8288 13.6379 14.6581 12.5499 14.6581H10.3419C9.65921 14.6581 9.13654 14.7221 8.77388 14.8501C8.43254 14.9568 8.19788 15.1915 8.06988 15.5541C7.94188 15.8955 7.87788 16.4395 7.87788 17.1861V33.3141C7.87788 34.0395 7.94188 34.5835 8.06988 34.9461C8.19788 35.3088 8.43254 35.5541 8.77388 35.6821C9.13654 35.7888 9.65921 35.8421 10.3419 35.8421H12.4219C13.6379 35.8421 14.5979 35.6501 15.3019 35.2661C16.0272 34.8821 16.5712 34.2528 16.9339 33.3781C17.3179 32.5035 17.6059 31.3088 17.7979 29.7941H18.5339C18.4699 30.4128 18.4379 31.2235 18.4379 32.2261C18.4379 32.6528 18.4485 33.2715 18.4699 34.0821C18.5125 34.8928 18.5765 35.7248 18.6619 36.5781C17.5739 36.5355 16.3472 36.5141 14.9819 36.5141C13.6165 36.4928 12.4005 36.4821 11.3339 36.4821C10.8432 36.4821 10.2139 36.4821 9.44588 36.4821C8.67788 36.4821 7.84588 36.4928 6.94988 36.5141C6.07521 36.5141 5.17921 36.5248 4.26188 36.5461C3.36588 36.5461 2.50188 36.5568 1.66988 36.5781V35.9381C2.39521 35.8955 2.93921 35.8101 3.30188 35.6821C3.66454 35.5541 3.89921 35.2981 4.00588 34.9141C4.13388 34.5301 4.19788 33.9541 4.19788 33.1861V17.3141C4.19788 16.5248 4.13388 15.9488 4.00588 15.5861C3.89921 15.2021 3.65388 14.9461 3.26988 14.8181C2.90721 14.6688 2.37388 14.5835 1.66988 14.5621V13.9221C2.50188 13.9435 3.36588 13.9648 4.26188 13.9861C5.17921 13.9861 6.07521 13.9968 6.94988 14.0181C7.84588 14.0181 8.67788 14.0181 9.44588 14.0181C10.2139 14.0181 10.8432 14.0181 11.3339 14.0181C12.3152 14.0181 13.4245 14.0181 14.6619 14.0181C15.9205 13.9968 17.0405 13.9648 18.0219 13.9221ZM12.7099 24.8661C12.7099 24.8661 12.7099 24.9728 12.7099 25.1861C12.7099 25.3995 12.7099 25.5061 12.7099 25.5061H6.91788C6.91788 25.5061 6.91788 25.3995 6.91788 25.1861C6.91788 24.9728 6.91788 24.8661 6.91788 24.8661H12.7099ZM13.6379 20.6421C13.5525 21.8581 13.5099 22.7861 13.5099 23.4261C13.5312 24.0661 13.5419 24.6528 13.5419 25.1861C13.5419 25.7195 13.5525 26.3061 13.5739 26.9461C13.5952 27.5861 13.6485 28.5141 13.7339 29.7301H12.9979C12.8912 29.0261 12.7525 28.3541 12.5819 27.7141C12.4112 27.0528 12.1019 26.5195 11.6539 26.1141C11.2272 25.7088 10.5552 25.5061 9.63788 25.5061V24.8661C10.3205 24.8661 10.8539 24.7275 11.2379 24.4501C11.6432 24.1728 11.9525 23.8101 12.1659 23.3621C12.3792 22.9141 12.5285 22.4555 12.6139 21.9861C12.7205 21.4955 12.8165 21.0475 12.9019 20.6421H13.6379ZM27.3079 20.0661V20.7381C26.9025 20.7381 26.5719 20.8341 26.3159 21.0261C26.0599 21.2181 26.0385 21.4848 26.2519 21.8261L34.7639 34.3061C35.0839 34.7968 35.3825 35.1701 35.6599 35.4261C35.9585 35.6608 36.2999 35.8208 36.6839 35.9061V36.5781C36.4279 36.5568 36.0439 36.5355 35.5319 36.5141C35.0412 36.4715 34.5399 36.4501 34.0279 36.4501C33.3239 36.4501 32.5879 36.4715 31.8199 36.5141C31.0519 36.5355 30.4865 36.5568 30.1239 36.5781V35.9061C30.5505 35.9061 30.8919 35.8101 31.1479 35.6181C31.4039 35.4048 31.4145 35.1381 31.1799 34.8181L22.6679 22.3381C22.2625 21.7621 21.9319 21.3675 21.6759 21.1541C21.4412 20.9195 21.1319 20.7808 20.7479 20.7381V20.0661C21.0252 20.0875 21.4305 20.1195 21.9639 20.1621C22.4972 20.1835 23.0199 20.1941 23.5319 20.1941C24.2359 20.1941 24.9505 20.1835 25.6759 20.1621C26.4225 20.1195 26.9665 20.0875 27.3079 20.0661ZM27.6599 28.4501C27.6599 28.4501 27.6705 28.5141 27.6919 28.6421C27.7345 28.7701 27.7772 28.9088 27.8199 29.0581C27.8839 29.2075 27.9159 29.2821 27.9159 29.2821L25.7079 32.1301C25.1319 32.8768 24.8225 33.5381 24.7799 34.1141C24.7372 34.6688 24.9292 35.0955 25.3559 35.3941C25.7825 35.6928 26.3692 35.8741 27.1159 35.9381V36.5781C26.7319 36.5568 26.2945 36.5461 25.8039 36.5461C25.3132 36.5248 24.8332 36.5141 24.3639 36.5141C23.8945 36.4928 23.4892 36.4821 23.1479 36.4821C22.6572 36.4821 22.2199 36.4928 21.8359 36.5141C21.4519 36.5141 21.0999 36.5355 20.7799 36.5781V35.9381C21.2065 35.8528 21.6332 35.6395 22.0599 35.2981C22.5079 34.9355 23.0305 34.3808 23.6279 33.6341L27.6599 28.4501ZM35.9479 20.0661V20.7061C35.5212 20.7915 35.0625 21.0261 34.5719 21.4101C34.1025 21.7941 33.6119 22.3381 33.0999 23.0421L29.4519 27.9061C29.4519 27.9061 29.4305 27.8421 29.3879 27.7141C29.3665 27.5648 29.3345 27.4261 29.2919 27.2981C29.2492 27.1701 29.2279 27.1061 29.2279 27.1061L31.4359 24.0661C31.9265 23.3621 32.2359 22.7755 32.3639 22.3061C32.4919 21.8368 32.4172 21.4635 32.1399 21.1861C31.8625 20.9088 31.3399 20.7488 30.5719 20.7061V20.0661C31.1479 20.0875 31.6599 20.1088 32.1079 20.1301C32.5772 20.1515 33.0679 20.1621 33.5799 20.1621C34.0705 20.1621 34.5079 20.1515 34.8919 20.1301C35.2759 20.1088 35.6279 20.0875 35.9479 20.0661ZM43.4164 19.7141V39.3301C43.4164 40.2688 43.683 40.8981 44.2164 41.2181C44.7497 41.5381 45.4857 41.6981 46.4244 41.6981V42.3701C45.9337 42.3488 45.251 42.3168 44.3764 42.2741C43.5017 42.2528 42.563 42.2421 41.5604 42.2421C40.8564 42.2421 40.163 42.2528 39.4804 42.2741C38.7977 42.3168 38.275 42.3488 37.9124 42.3701V41.6981C38.659 41.6981 39.1817 41.5488 39.4804 41.2501C39.8004 40.9728 39.9604 40.4395 39.9604 39.6501V23.5541C39.9604 22.5941 39.8004 21.8901 39.4804 21.4421C39.1604 20.9728 38.5524 20.7381 37.6564 20.7381V20.0661C38.339 20.1301 39.0004 20.1621 39.6404 20.1621C40.3444 20.1621 41.0164 20.1301 41.6564 20.0661C42.2964 19.9808 42.883 19.8635 43.4164 19.7141ZM48.5044 19.6181C49.6137 19.6181 50.6057 19.9275 51.4804 20.5461C52.3764 21.1435 53.0804 22.0288 53.5924 23.2021C54.1044 24.3755 54.3604 25.8368 54.3604 27.5861C54.3604 28.8661 54.211 30.0821 53.9124 31.2341C53.6137 32.3648 53.155 33.3675 52.5364 34.2421C51.939 35.0955 51.1817 35.7781 50.2644 36.2901C49.347 36.7808 48.259 37.0261 47.0004 37.0261C46.0617 37.0261 45.2297 36.8235 44.5044 36.4181C43.8004 36.0128 43.299 35.5008 43.0004 34.8821L43.3204 34.4341C43.5977 34.9675 43.9817 35.4048 44.4724 35.7461C44.9844 36.0875 45.6137 36.2581 46.3604 36.2581C47.4697 36.2581 48.3337 35.9061 48.9524 35.2021C49.5924 34.4768 50.0404 33.5061 50.2964 32.2901C50.5524 31.0528 50.6804 29.6555 50.6804 28.0981C50.6804 26.3488 50.5524 24.9408 50.2964 23.8741C50.0404 22.7861 49.6564 21.9968 49.1444 21.5061C48.6324 20.9941 48.0137 20.7381 47.2884 20.7381C46.3284 20.7381 45.4537 21.1221 44.6644 21.8901C43.8964 22.6581 43.427 23.8101 43.2564 25.3461L42.9364 24.6741C43.2137 23.0741 43.8537 21.8368 44.8564 20.9621C45.8804 20.0661 47.0964 19.6181 48.5044 19.6181ZM62.1976 11.4901V33.6021C62.1976 34.4981 62.3683 35.1061 62.7096 35.4261C63.0723 35.7461 63.6696 35.9061 64.5016 35.9061V36.5781C64.139 36.5568 63.5736 36.5355 62.8056 36.5141C62.0376 36.4715 61.2696 36.4501 60.5016 36.4501C59.7336 36.4501 58.955 36.4715 58.1656 36.5141C57.3976 36.5355 56.8216 36.5568 56.4376 36.5781V35.9061C57.2696 35.9061 57.8563 35.7461 58.1976 35.4261C58.5603 35.1061 58.7416 34.4981 58.7416 33.6021V15.3301C58.7416 14.3701 58.5816 13.6661 58.2616 13.2181C57.9416 12.7488 57.3336 12.5141 56.4376 12.5141V11.8421C57.1203 11.9061 57.7816 11.9381 58.4216 11.9381C59.1256 11.9381 59.7976 11.9061 60.4376 11.8421C61.0776 11.7568 61.6643 11.6395 62.1976 11.4901ZM73.7234 19.6181C75.1527 19.6181 76.422 19.9168 77.5314 20.5141C78.6407 21.1115 79.526 22.0501 80.1874 23.3301C80.8487 24.6101 81.1794 26.2848 81.1794 28.3541C81.1794 30.4235 80.8487 32.0981 80.1874 33.3781C79.526 34.6368 78.6407 35.5648 77.5314 36.1621C76.422 36.7381 75.1527 37.0261 73.7234 37.0261C72.3154 37.0261 71.046 36.7381 69.9154 36.1621C68.7847 35.5648 67.8887 34.6368 67.2274 33.3781C66.5874 32.0981 66.2674 30.4235 66.2674 28.3541C66.2674 26.2848 66.5874 24.6101 67.2274 23.3301C67.8887 22.0501 68.7847 21.1115 69.9154 20.5141C71.046 19.9168 72.3154 19.6181 73.7234 19.6181ZM73.7234 20.2581C72.614 20.2581 71.7074 20.8981 71.0034 22.1781C70.2994 23.4368 69.9474 25.4955 69.9474 28.3541C69.9474 31.2128 70.2994 33.2715 71.0034 34.5301C71.7074 35.7675 72.614 36.3861 73.7234 36.3861C74.8114 36.3861 75.7074 35.7675 76.4114 34.5301C77.1367 33.2715 77.4994 31.2128 77.4994 28.3541C77.4994 25.4955 77.1367 23.4368 76.4114 22.1781C75.7074 20.8981 74.8114 20.2581 73.7234 20.2581ZM93.7461 19.6181C94.3648 19.6181 94.8875 19.7461 95.3141 20.0021C95.7621 20.2581 96.0928 20.5888 96.3061 20.9941C96.5408 21.3781 96.6581 21.8155 96.6581 22.3061C96.6581 22.9248 96.4661 23.4581 96.0821 23.9061C95.7195 24.3328 95.2288 24.5461 94.6101 24.5461C94.0768 24.5461 93.6181 24.3861 93.2341 24.0661C92.8715 23.7461 92.6901 23.3088 92.6901 22.7541C92.6901 22.2848 92.8075 21.8901 93.0421 21.5701C93.2981 21.2288 93.5861 20.9621 93.9061 20.7701C93.6928 20.5995 93.4368 20.5248 93.1381 20.5461C92.5621 20.5675 92.0288 20.7595 91.5381 21.1221C91.0475 21.4635 90.6315 21.9115 90.2901 22.4661C89.9488 22.9995 89.6821 23.5755 89.4901 24.1941C89.2981 24.8128 89.2021 25.3888 89.2021 25.9221V33.2821C89.2021 34.3275 89.4901 35.0315 90.0661 35.3941C90.6421 35.7355 91.4421 35.9061 92.4661 35.9061V36.5781C91.9755 36.5568 91.2715 36.5355 90.3541 36.5141C89.4581 36.4715 88.5088 36.4501 87.5061 36.4501C86.7381 36.4501 85.9701 36.4715 85.2021 36.5141C84.4341 36.5355 83.8475 36.5568 83.4421 36.5781V35.9061C84.2741 35.9061 84.8608 35.7461 85.2021 35.4261C85.5648 35.1061 85.7461 34.4981 85.7461 33.6021V23.5541C85.7461 22.5941 85.5861 21.8901 85.2661 21.4421C84.9461 20.9728 84.3381 20.7381 83.4421 20.7381V20.0661C84.1248 20.1301 84.7861 20.1621 85.4261 20.1621C86.1515 20.1621 86.8235 20.1301 87.4421 20.0661C88.0821 19.9808 88.6688 19.8635 89.2021 19.7141V23.3941C89.4581 22.7755 89.7995 22.1781 90.2261 21.6021C90.6528 21.0261 91.1648 20.5568 91.7621 20.1941C92.3595 19.8101 93.0208 19.6181 93.7461 19.6181ZM105.284 19.6181C107.162 19.6181 108.634 20.1835 109.7 21.3141C110.767 22.4448 111.3 24.2368 111.3 26.6901H100.26L100.196 26.0821H107.908C107.93 25.0368 107.844 24.0768 107.652 23.2021C107.46 22.3061 107.162 21.5915 106.756 21.0581C106.351 20.5248 105.818 20.2581 105.156 20.2581C104.239 20.2581 103.439 20.7488 102.756 21.7301C102.095 22.6901 101.69 24.2368 101.54 26.3701L101.636 26.5301C101.615 26.8288 101.594 27.1595 101.572 27.5221C101.551 27.8635 101.54 28.2048 101.54 28.5461C101.54 30.0181 101.764 31.2555 102.212 32.2581C102.66 33.2608 103.247 34.0181 103.972 34.5301C104.698 35.0208 105.434 35.2661 106.18 35.2661C106.756 35.2661 107.311 35.1808 107.844 35.0101C108.399 34.8181 108.922 34.5088 109.412 34.0821C109.903 33.6341 110.34 33.0261 110.724 32.2581L111.364 32.5141C111.108 33.2395 110.714 33.9541 110.18 34.6581C109.647 35.3621 108.964 35.9381 108.132 36.3861C107.3 36.8128 106.33 37.0261 105.22 37.0261C103.727 37.0261 102.426 36.6955 101.316 36.0341C100.207 35.3515 99.3537 34.3808 98.7564 33.1221C98.159 31.8635 97.8604 30.3701 97.8604 28.6421C97.8604 26.7435 98.1697 25.1221 98.7884 23.7781C99.407 22.4341 100.271 21.4101 101.38 20.7061C102.511 19.9808 103.812 19.6181 105.284 19.6181Z" fill="#E4BA8F"/>
<circle cx="22.497" cy="22.497" r="22.1091" transform="matrix(-0.026177 -0.999657 -0.999657 0.026177 173.578 44.9785)" stroke="#E4BA8F" stroke-width="0.775757"/>
<path fill-rule="evenodd" clip-rule="evenodd" d="M152.354 28.4524C152.244 28.3442 152.182 28.1969 152.18 28.0427C152.179 27.8885 152.239 27.7401 152.347 27.6301L155.976 23.9367L144.969 24.0328C144.815 24.0341 144.666 23.9741 144.556 23.866C144.446 23.7578 144.383 23.6104 144.382 23.4561C144.381 23.3018 144.441 23.1532 144.549 23.0432C144.657 22.9331 144.804 22.8705 144.959 22.8692L155.966 22.7731L152.273 19.1436C152.215 19.0909 152.169 19.027 152.136 18.956C152.104 18.8849 152.086 18.808 152.084 18.7299C152.082 18.6518 152.096 18.574 152.124 18.5013C152.153 18.4286 152.196 18.3625 152.251 18.3067C152.306 18.251 152.371 18.2069 152.443 18.177C152.515 18.1471 152.593 18.132 152.671 18.1327C152.749 18.1334 152.826 18.1499 152.898 18.181C152.97 18.2122 153.034 18.2575 153.088 18.3142L157.783 22.9279C157.893 23.0361 157.955 23.1834 157.957 23.3376C157.958 23.4918 157.898 23.6402 157.79 23.7502L153.176 28.4452C153.068 28.5551 152.921 28.6176 152.767 28.6189C152.613 28.6203 152.464 28.5604 152.354 28.4524Z" fill="#E4BA8F"/>
</svg>
