<svg width="58" height="58" viewBox="0 0 58 58" fill="none" xmlns="http://www.w3.org/2000/svg">
<circle cx="29" cy="29" r="28.5" stroke="#E4BA8F"/>
<path fill-rule="evenodd" clip-rule="evenodd" d="M22.653 27.4326C22.796 27.5706 22.988 27.6461 23.1867 27.6427C23.3855 27.6392 23.5747 27.557 23.7128 27.4141L28.3497 22.6125L28.5974 36.8003C28.6009 36.9992 28.6832 37.1885 28.8263 37.3267C28.9694 37.4649 29.1615 37.5406 29.3604 37.5371C29.5592 37.5336 29.7486 37.4513 29.8868 37.3082C30.0249 37.1651 30.1006 36.973 30.0972 36.7741L29.8495 22.5863L34.6512 27.2232C34.7211 27.2957 34.8049 27.3533 34.8976 27.3927C34.9903 27.4321 35.09 27.4524 35.1907 27.4524C35.2914 27.4524 35.3911 27.4321 35.4838 27.3928C35.5766 27.3534 35.6604 27.2958 35.7304 27.2234C35.8003 27.1509 35.855 27.0651 35.8911 26.9711C35.9272 26.8771 35.9439 26.7767 35.9404 26.6761C35.9369 26.5754 35.9131 26.4765 35.8705 26.3852C35.8279 26.294 35.7674 26.2122 35.6925 26.1448L29.5887 20.2505C29.4456 20.1125 29.2537 20.0369 29.055 20.0404C28.8562 20.0439 28.667 20.1261 28.5289 20.269L22.6345 26.3728C22.4965 26.5158 22.421 26.7078 22.4244 26.9065C22.4279 27.1052 22.5101 27.2945 22.653 27.4326Z" fill="#E4BA8F"/>
</svg>
