<svg width="40" height="40" viewBox="0 0 40 40" fill="none" xmlns="http://www.w3.org/2000/svg">
<g id="Component 159">
<circle id="Ellipse 1" cx="20" cy="20" r="19.5" fill="#754730" stroke="white"/>
<path id="Vector" d="M15.3578 13.7786C15.3576 14.25 15.1805 14.7021 14.8655 15.0353C14.5505 15.3685 14.1233 15.5556 13.6781 15.5554C13.2328 15.5551 12.8058 15.3676 12.4911 15.0341C12.1764 14.7005 11.9998 14.2483 12 13.7768C12.0002 13.3053 12.1773 12.8533 12.4923 12.52C12.8073 12.1868 13.2345 11.9998 13.6797 12C14.125 12.0002 14.552 12.1878 14.8667 12.5213C15.1814 12.8548 15.358 13.3071 15.3578 13.7786ZM15.4082 16.8717H12.0504V28H15.4082V16.8717ZM20.7135 16.8717H17.3725V28H20.68V22.1603C20.68 18.9072 24.6842 18.605 24.6842 22.1603V28H28V20.9515C28 15.4674 22.0735 15.6718 20.68 18.365L20.7135 16.8717Z" fill="white"/>
</g>
</svg>
