<svg width="40" height="40" viewBox="0 0 40 40" fill="none" xmlns="http://www.w3.org/2000/svg">
<g id="Component 158">
<circle id="Ellipse 1" cx="20" cy="20" r="19.5" fill="#754730" stroke="white"/>
<path id="Vector" d="M27.8262 15.1386L25.6116 17.6302C25.1642 23.4651 20.7905 28 15.5562 28C14.4807 28 13.5941 27.8083 12.9208 27.43C12.3779 27.1242 12.1557 26.7967 12.1002 26.7034C12.0506 26.6198 12.0185 26.5247 12.0062 26.4252C11.994 26.3257 12.0018 26.2244 12.0292 26.1288C12.0567 26.0332 12.1029 25.9458 12.1646 25.8731C12.2262 25.8005 12.3017 25.7445 12.3853 25.7092C12.4046 25.7009 14.1807 24.9334 15.3088 23.4726C14.6832 22.8939 14.1371 22.2144 13.6882 21.456C12.7697 19.9219 11.7417 17.2569 12.0587 13.2745C12.0687 13.148 12.1107 13.0273 12.1797 12.9267C12.2486 12.8261 12.3417 12.7498 12.4479 12.7067C12.5542 12.6636 12.6691 12.6556 12.7793 12.6835C12.8894 12.7115 12.9902 12.7743 13.0697 12.8645C13.0956 12.8937 15.5347 15.6228 18.5166 16.5078V16.0003C18.5155 15.4681 18.609 14.9411 18.7917 14.4502C18.9744 13.9593 19.2425 13.5145 19.5803 13.142C19.9083 12.7735 20.2986 12.4826 20.7282 12.2865C21.1578 12.0904 21.618 11.9931 22.0815 12.0004C22.7034 12.0073 23.313 12.1951 23.8513 12.5455C24.3895 12.896 24.838 13.3972 25.1531 14.0003H27.407C27.5243 14.0002 27.6389 14.0393 27.7364 14.1125C27.834 14.1858 27.91 14.2899 27.9549 14.4118C27.9998 14.5337 28.0115 14.6678 27.9886 14.7972C27.9657 14.9266 27.9092 15.0454 27.8262 15.1386Z" fill="white"/>
</g>
</svg>
